<?xml version="1.0" encoding="utf-8"?>
<!-- Generator: Adobe Illustrator 21.0.0, SVG Export Plug-In . SVG Version: 6.00 Build 0)  -->
<svg version="1.1" id="Layer_1" xmlns="http://www.w3.org/2000/svg" xmlns:xlink="http://www.w3.org/1999/xlink" x="0px" y="0px"
	 viewBox="0 0 592 488" style="enable-background:new 0 0 592 488;" xml:space="preserve">
<style type="text/css">
	.st0{fill:#231F20;}
</style>
<title>Artboard 1</title>
<path class="st0" d="M490.9,169c-25.3-36.5-90.3-41.8-118.6-48.6s-27.9-32-27.3-38.5S349.8,50,395.2,50s45,32.3,45,32.3h54.6
	c0,0,1.5-17.5-5.8-33.6S453.2,4.7,393.3,4.7c-48.8,0-82.3,22.1-92.3,37.1v108l54,15.2l11.4,3.2h0.1c20.3,5.8,45.6,13,58.7,17.2
	c23.4,7.4,26,22,27.3,27.6c1.3,5.6,0.8,28.2-22.2,39.4c-18,8.9-41.9,11.3-68.5,4.6c-26.2-6.6-25.3-35.5-25.3-35.5v-51.3l-35.4-10
	v117c10.2,14.1,43.1,28.6,84.7,28.4c57.7-0.3,81.9-13.3,98.9-30.8C506.5,252.1,516.3,205.5,490.9,169z"/>
<path class="st0" d="M290.8,41.4c-10.5-15-43.8-36.7-92.1-36.7c-59.9,0-88.4,28-95.7,44.1s-5.8,33.6-5.8,33.6h54.6
	c0,0-0.3-32.3,45-32.3s49.5,25.3,50.2,31.9s0.9,31.5-27.3,38.5S126.4,132.5,101,169s-15.6,83,6.4,105.8
	c16.9,17.5,41.2,30.5,98.8,30.8c41.4,0.3,74.2-14.1,84.5-28.1L290.8,41.4z M230.4,257c-26.6,6.7-50.5,4.2-68.5-4.6
	c-23-11.2-23.4-33.8-22.2-39.4s3.9-20.1,27.3-27.6c23.8-7.5,88.8-25.6,88.8-25.6v61.8C255.7,221.5,256.6,250.4,230.4,257z"/>
<path class="st0" d="M85.9,434.9c-1.5,11-6,18.9-13.3,22.9c-4.4,2.7-9.7,3.2-13.4,3.2c-2.2,0-8.1,0-13.6-2.6
	c-2.8-1.4-5.3-3.4-7.4-5.8c-6.1-7.4-9-17.6-9-32.1c0-16.2,4.2-27.8,12.4-34.4c4.8-3.8,10.8-5.8,16.9-5.7c14.5,0,20.4,9.2,22.3,13.3
	c1.3,3.1,2.1,6.3,2.6,9.6l0.5,2.8l24.9-3.7l-0.3-2.2c-1.3-9.7-4.3-17.4-9-23.3c-2.5-3.6-5.6-6.8-9.2-9.4c-5.5-3.7-15.4-8.1-31.5-8.1
	c-6.7-0.1-13.3,0.8-19.7,2.8c-8.1,2.8-15.4,7.8-21,14.3c-9.3,10.9-14.2,26.1-14.2,44.1c0,7.5,0.9,15.1,2.7,22.4
	c4.7,18.1,13.7,26.2,21,31.3c12.4,8.3,25.9,8.3,31,8.3c17.7,0,28.3-5.8,33.1-9.2c14.5-10.7,17.8-29,18.8-35l0.6-3l-24.8-2.5
	L85.9,434.9z"/>
<path class="st0" d="M176.6,461.9c-5.7,0.1-11.4-1.3-16.5-4.1c-3.7-2.2-6.9-5.1-9.2-8.7c-1.8-3-6.1-11.6-6.1-27.5
	c0-16.6,4.5-28.8,13-35.3c3.3-2.5,8.7-5.8,18.3-5.8c21.7,0,28.7,15.5,30.7,28.6l0,0c0.7,4,1,8,1.1,12c0,17.8-4.3,29.1-13.6,35.7
	C189.1,460.3,183,462.1,176.6,461.9 M212.5,370.6c-14.3-11.3-29.4-11.3-35.8-11.3c-5.6,0-20.6,0-34.4,10.1c-3.8,2.6-7.2,5.8-10,9.5
	c-5.6,7.3-12.4,20.6-12.4,42.4c0,40.6,21.7,54,34.7,58.4c6.7,2,13.6,2.9,20.5,2.8c7.2,0,16.6-0.5,25.3-3.9l0,0
	c7.7-3.2,32.7-16.8,32.7-57.5C233.1,398.9,225.9,381.5,212.5,370.6"/>
<rect x="247.6" y="339.4" class="st0" width="24.6" height="141"/>
<path class="st0" d="M324.5,386.3c5-3.9,11-5.8,18.3-5.8c21.7,0,28.6,15.5,30.6,28.6l0,0c0.6,4,1,8,1.1,12
	c0,17.8-4.3,29.1-13.6,35.7c-5.2,3.5-11.4,5.3-17.7,5.1c-5.8,0.1-11.4-1.3-16.5-4.1c-3.7-2.1-6.9-5.1-9.2-8.7
	c-1.8-3-6.1-11.6-6.1-27.5C311.4,405,316,392.8,324.5,386.3 M379.1,370.6c-14.3-11.3-29.4-11.3-35.8-11.3c-5.6,0-20.6,0-34.4,10.1
	c-3.8,2.6-7.1,5.8-9.9,9.5c-5.7,7.3-12.4,20.6-12.4,42.4c0,40.6,21.7,54,34.7,58.4c6.6,2,13.6,2.9,20.5,2.8c7.2,0,16.6-0.5,25.3-3.9
	l0,0c7.7-3.2,32.8-16.7,32.8-57.5C399.7,398.9,392.6,381.5,379.1,370.6"/>
<path class="st0" d="M483.5,417.8c0,15.2-0.6,21.5-4.2,28.3c-4.7,9-14.1,14.6-24.2,14.7c-10.5,0-15-6-16.4-8.5
	c-2.8-5.4-2.9-13.4-3-25.7v-65.1h-25v60.6c0,9.5-0.1,22.4,1.6,30.6c3.5,17.4,15.4,24.3,22.2,26.8c3.4,1.4,9.2,3,17.8,3
	c13,0,20-3.6,24.1-6.3c3.1-1.8,5.9-4.1,8.3-6.6v10.7h23.7V361.5h-24.8V417.8z"/>
<path class="st0" d="M588,385.8l0.2-23.9l-1.9-0.3c-3-0.5-6.1-0.7-9.1-0.7c-10.5,0-18.6,3.2-25.4,10c-1.3,1.3-2.5,2.7-3.7,4.2v-13.5
	h-23.5v118.8h24.4v-40.6c0-11.1,0.1-23.2,1.1-29.2c2.1-12.6,8.3-17.9,12.8-20.8c6.7-4.2,14.8-5.7,22.6-4.3L588,385.8z"/>
</svg>
